<svg width="60px" height="60px" viewBox="0 0 512 512" xmlns="http://www.w3.org/2000/svg" class="ionicon">

 <g>
  <title>Layer 1</title>
  <path id="svg_1" d="m413.66,246.10001l-27.66,0a2,2 0 0 1 -2,-2l0,-77.23999a38.86,38.86 0 0 0 -38.85999,-38.86002l-77.24002,0a2,2 0 0 1 -2,-2l0,-27.66c0,-27.14 -21.5,-49.86 -48.64,-50.33001a49.53,49.53 0 0 0 -50.40001,49.51l0,28.48001a2,2 0 0 1 -2,2l-77.23998,0a39.74,39.74 0 0 0 -39.62,39.62l0,70.38a2,2 0 0 0 2,2l26.91,0c29.37,0 53.67999,25.48001 54.09,54.85001c0.42,29.87 -23.51,57.14999 -53.29,57.14999l-27.71,0a2,2 0 0 0 -2,2l0,70.38a39.74,39.74 0 0 0 39.62,39.62l70.38,0a2,2 0 0 0 2,-2l0,-20.92999c0,-30.28 24.75,-56.35001 55,-57.06c30.10001,-0.70001 57,20.31 57,50.28l0,27.70999a2,2 0 0 0 2,2l71.14001,0a38.86,38.86 0 0 0 38.85999,-38.85999l0,-78a2,2 0 0 1 2,-2l28.48001,0c27.62997,0 49.51999,-22.67001 49.51999,-50.39999s-23.20001,-48.64001 -50.34,-48.64001z" stroke-width="32" stroke-linejoin="round" stroke-linecap="round" stroke="#76C9E3" fill="#000"/>
  <text font-style="normal" font-weight="bold" xml:space="preserve" text-anchor="start" font-family="Noto Sans JP" font-size="228" id="svg_2" y="335" x="165" stroke-width="0" stroke="#000" fill="#76C9E3">Ω</text>
 </g>
</svg>