<svg xmlns="http://www.w3.org/2000/svg" width="128px" height="128px" viewBox="0 0 129 129"><defs><style>.cls-1{fill:#fefefe;}.cls-2{fill:#000001;}.cls-3{fill:#010101;}.cls-4{fill:#060a1c;}.cls-5{fill:#5cbaee;}.cls-6{fill:#f6f6f6;}.cls-7{fill:#0f3265;}.cls-8{fill:#2a7ec2;}.cls-9{fill:#020202;}.cls-10{fill:#3b74b3;}.cls-11{fill:#70cbf5;}.cls-12{fill:#030304;}.cls-13{fill:#032354;}.cls-14{fill:#0a0a0a;}.cls-15{fill:#fdfdfd;}.cls-16{fill:#fdfefd;}.cls-17{fill:#fefefd;}.cls-18{fill:#fefdfd;}.cls-19{fill:#c9f2fb;}</style></defs><g id="图层_2" data-name="图层 2"><g id="图层_1-2" data-name="图层 1"><path class="cls-1" d="M128.93,65c0,20.31-.05,40.62.07,60.94,0,2.49-.56,3.07-3.06,3.06q-61.44-.13-122.88,0C.57,129,0,128.44,0,125.94Q.14,64.5,0,3.06C0,.57.56,0,3.06,0Q64.5.14,125.94,0c2.49,0,3.07.56,3.06,3.06C128.88,23.71,128.93,44.35,128.93,65Z"/><path d="M77.91,81.05h6.14l.48.49c1,1.62.43,3.57,1,5.27,5.22-.73,5.74-.14,5.17,5.61a3,3,0,0,1-.88,1.06c-5.18,1.78-6.11,4.85-3.23,10.8l.3.6c0,2.83.09,5.66.07,8.49,0,3.57-3.13,6.29-6.78,6.62-5.06.45-9.28-.29-11.56-5.57-.2-.48-1.77-.38-2.7-.55l-.57-.34c-1.38-1.76-3.68-1.2-5.4-2.13a5.65,5.65,0,0,1-1.09-.93c-.82-1.31-2.35-1-3.51-1.59-1.35-.62-2.66-1.81-1.82-3,2.21-3.09,1.5-7,3.48-10.13,4.15-.58,7.92,1.45,11.3,3s.36,3.9-1.49,5.42c-.29.27-.57.57-.87.85.2-.18.4-.36.66-.57a5.87,5.87,0,0,1,4.73-.25,2.81,2.81,0,0,1,1.08.91c-.86,3.55-.45,6.51,2.87,8.89,2,1.42,3.39,1.83,5.17,0s3.16-3.63.31-5.69a4.34,4.34,0,0,1-.72-1.27c-.16-4-.75-7.44-6.14-7.11-1.81.11-3-1.3-2.48-3.39,1.44-1.93,2.88-3.92,5.34-4.62,4-1.14,2.81-3,.78-5.05a5.85,5.85,0,0,1-.19-5.25Z"/><path d="M96,111c-1.25-4.71-4.42-6.57-9.14-6.13l.15.14c-2.23-3.13,1.27-4,2.28-5.91,1.84-1.14,1.23-2.37.13-3.62A2.26,2.26,0,0,1,90,92.9L89.9,93C91.85,92,94,91.15,92.07,88.18c-.68-1-.28-2.57.32-3.8,1.6-1.35,1.18-2.66-.08-4-.63-2.13-1.14-4.45,1.16-5.73s3.44,1.16,5,2.2a5.87,5.87,0,0,1,1.1,1c1,2,4.22,3,2.67,6.13-2.46,3.55-2.46,3.55,3.08,5.85,1.47,2.06,3.7,1.68,5.77,1.78,1.78.08,3.6-.14,5.26.73l.54.52c.32,1.22-.61,2.77,1.87,3.23s1,3,1.11,4.56c.13,1.88-1.61,1.31-2.58,1.23-2.38-.21-3.83.35-3.39,3.11l-.6.44a2.25,2.25,0,0,1-2.6-.79c-.94-3.37-.94-3.37-.24-6.91-1.47,2.25-1.79,4.56.25,6.94a2.42,2.42,0,0,1,1,2.46,3.12,3.12,0,0,1-.62,1.2c-2,1.09-1.75,3.33-2.54,5-.15.16-.31.31-.47.46h-3.13l-.58-.35c-1.87-3.36-4.79-2.76-7.74-2.08Z"/><path d="M27.3,56.73c-4.09-.35-3.2,2.59-3.26,4.92-.06,2.12.92,5-3.06,4.4-1.45-1.06-.59-3.61-3.32-4.49a14.58,14.58,0,0,0,3.46,4.35c.18,1.21-1,3.07,1.57,3.1,2.2,0,1,1.9,1.47,2.86l.14-.15c-4.55,1.83-7.11-1.35-9.11-4.3-1.27-1.88-2.4-2-2.94-.5-.62,1.8-1.4,3-2.73,1.64-1.15-1.18-1-4.66-.08-4.94,4.16-1.23,2.05-4.42,2.7-6.69l-.15.14c2.13.22,3.45-.25,3.13-2.88-.12-1-.87-3.32,1.16-3,6.28.85,4.62-3.49,4.76-6.72,0-.83.06-1.65.09-2.47l-.14.14h6.12l.43.51a2.93,2.93,0,0,1,.12,1.94,3,3,0,0,1-.73,1.06c-.79.67-.65,1.28.13,1.86a7.19,7.19,0,0,1,.91.92c2,2.46,5.09.79,7.45,1.89a2.64,2.64,0,0,1,1.08.93,2.81,2.81,0,0,1,.06,2.15l-.46.58c-2.24,0-4.48.19-6.7,0C27,53.8,26.78,55,27.16,56.88Z"/><path class="cls-2" d="M57.09,24.11c.14-1-.79-2.64.77-2.94s4.52-.09,4.6.31c.7,3.9,3.64,2.55,5.7,2.48,2.83-.11,4.46.36,3.88,3.68-.14.8-.51,2.08,1,2.35s1.75-.51,2.1-1.87c.45-1.73,1.79-1.45,2.83-.26,1.69,1.95,1.77,2,3,0,.88-1.39,2-.58,3.06-.74L83.9,27l.2,5.92.14-.15c-2.3.1-4.61.17-6.91.31-.88.05-2.1-.43-2.29,1.07-.14,1.08,0,2,1.48,1.92s1.58.91,1.42,2c-.23,1.49-1.48.91-2.35,1-1.6.2-3.62-.8-3.84,2.28-.08,1-2.46,1.48-2.64-.46-.23-2.57-2-1.58-3.19-1.87l-.44-.57a2.2,2.2,0,0,1,.67-2.54,4.74,4.74,0,0,1,2.55-1c-1.16-.62-1.7.35-2.39.9a24.41,24.41,0,0,0-2.67,2.9l-.56.36c-2.2.42-3.52-.15-3.08-2.73s-.6-3.65-3.19-3.21-3.2-.82-2.72-3.06l.36-.52a11.4,11.4,0,0,0,2.06-2.37,2.77,2.77,0,0,1,1.06-.7,2.44,2.44,0,0,1,2.23.45L60,27l-.2-.15a19,19,0,0,0-2.35-2.23C57.29,24.45,57.19,24.28,57.09,24.11Z"/><path class="cls-3" d="M48,81.06c2.31-.52,5.25,1.14,6.8-2,1.63.91,4.79-2.22,5.17,2l-.31.56c-1.91,1.42-1,4.19-2.74,5.68a2.26,2.26,0,0,1-2.48,0c-.37-.12-.5-.34-.36-.66-.23.62.54.67.65,1.14a5.24,5.24,0,0,1-.23,4.87c-1.35,1.75-3,.4-4.93.33,1.28,2.61,3.51,4.8,2.27,7.83a2.37,2.37,0,0,1-3.14,1.61l-.56-.43c.69-3.23-3.4-5.56-3.84-5.61C39.31,95.84,35.4,91,30,92.89l-.44-.49a3,3,0,0,1-.13-1.92,2.72,2.72,0,0,1,.71-1,6.6,6.6,0,0,0,2.17-2.1,3.24,3.24,0,0,1,.91-.86,3.23,3.23,0,0,1,2.46-.1,3,3,0,0,1,1,.75c.53.68,1.12.91,1.82.2l.5-.28,3.13-.14a5,5,0,0,1,1.2,2.53c.32-1.2-.61-1.74-1.35-2.39,1.26-1.89-2.69-6.51,3.14-6,.17.09.34.18.51.25a1.24,1.24,0,0,0,1.86,0Z"/><path class="cls-4" d="M77.75,73.54c0,2.44-.9,4.22-3.62,4.24-6.56.06-13.12,0-19.68,0a2.61,2.61,0,0,1-2.57-1.86c-.76-4.48-.16-9-.35-13.48a3,3,0,0,1,.29-1.52c2.89-.12,2.86,1.88,3,3.94.28,4.68,1.49,5.42,5.85,3.49,5-2.22,10-3.53,14.83.31C77.93,69.51,77.19,71.83,77.75,73.54Z"/><path d="M19.3,30C9.05,30,9.05,30,9.05,19.8c0-10.75,0-10.75,10.74-10.75C30,9.05,30,9.05,30,19.29,30,30,30,30,19.3,30Z"/><path d="M30,109c0,11,0,11-11,11-10,0-10,0-10-10,0-11,0-11,11-11C30,99,30,99,30,109Z"/><path d="M109.44,30C99,30,99,30,99,19.53S99,9.05,109.47,9.05s10.47,0,10.47,10.51S119.94,30,109.44,30Z"/><path d="M116.87,68.93c.68,2.24-1.6,5.72,2.73,6.5.22,0,.32,1.19.33,1.83,0,4.46-.12,8.93.06,13.38.11,2.66-1.41,2.44-3.12,2.26L117,93c-2.4-2.86-1.27-6.31-1.48-9.5s-2-5.28-4.64-3.59c-5,3.25-8.23-.2-12-2l.14.14c-2-2.43-1.45-5.2-1-7.94a4.48,4.48,0,0,1,.72-1.43c2.41-2.36,4.76-4.93,8.7-3.44a2.9,2.9,0,0,1,1.1.93c1,3.16,1.07,5.93-3.27,7.2,4.11.92,5.72-2,7.8-4a3.93,3.93,0,0,1,1.12-.91,3,3,0,0,1,2.15,0Z"/><path d="M39.09,27c-.93.17-2.37,0-2.68.56-.68,1.15-.4,3.28-2.61,2.36-1.53-.63-.66-2.33-.73-3.53C32.94,24.2,33,22,33,19.88c0-.78-.12-1.72,1.09-1.79C35,18,35.9,18,36,19.11c.28,3.62,3,1.71,4.54,1.81,2.52.16,1.51-2.17,1.42-3.33-.24-3,1.72-2.59,3.5-2.53,2,.06,8.18,6.66,8.49,9l-.55.5a5,5,0,0,1-4.85-.11.51.51,0,0,1-.39-.59c-.27.19-.21.34.22.49,1.13,1.52.61,3.75,2.27,5,.1.19.21.38.31.58.71,3.45-2.78,5-4.31,5.71-2.46,1.21-1.2-2-1.59-3.3C44.4,30.33,46.88,26.56,42,27l-.5-.25a1.24,1.24,0,0,0-1.86,0Z"/><path class="cls-2" d="M84,27.11C84.51,24.3,83,23.8,80.62,24c-1,.08-2.49.64-2.61-1.29-.16-2.32,1.69-1.84,2.73-1.59,2.27.54,5.76-2.08,6.68,2.49.17.8,2.27.68,2.3-.24,0-1.8,1.46-3.84-1.3-5.44-3.08-1.8-1.34-5.3-1.22-7.93.07-1.84,2.49-.67,3.83-.9.55-.09,1.62.21,1.72.55C94.62,15.79,97.23,21.81,96,28.5c-.17.9-.28,1.59-1.41,1.53a1.54,1.54,0,0,1-1.65-1.32c-.94-2.88-1.82-2.84-3,0-.8,1.87-2.39,2.26-2.87-.36-.4-2.25-2.07-1-3.11-1.42Z"/><path d="M51.08,113.87c-2.28.49-3.47-.2-3.07-2.74.68-4.43-2.63-3.25-4.73-3.06a1.38,1.38,0,0,0-.54,2.68c4.73,1.82,2.34,5.78,1.92,8.16s-4,.61-6.11,1c-1,.17-2.75.46-2.42-1.35.29-1.57-1.78-4.22,1.74-4.64.39-.05,1.07-.54,1.05-.75A14.85,14.85,0,0,1,42.1,101.9L42,102h6.14l-.14-.14c4.28,2.8,5.43,6.62,3.69,11.38Z"/><path d="M81.05,45.09c-1.15-4.68.68-8.59,3.18-12.34l-.13.15,7,.13c1,0,2,0,1.91,1.54s-1.12,1.76-2,1.4c-3.69-1.48-3.91,3.39-6.71,3.6-.42,0-.58,2,.11,2,4,.53,2.18,3.56,2.6,5.62.31,1.5-1.06,3.53,2.13,4,1.82.27.7,2.87.8,4.39.12,1.9-1.5,1.3-2.53,1.36s-2.32,0-3.48-.05l.14.14c-.34-1.18.77-3-1.8-3.13-2.18-.08-.95-1.93-1.19-3,.12-.18.23-.36.34-.55,1.65-1.58,1.67-3.17,0-4.75C81.26,45.46,81.16,45.28,81.05,45.09Z"/><path class="cls-3" d="M33,63.08c2.26-.64,5.53,1.51,6.68-2.69.17-.6,3.69-.15,5.62-.42,3.36-.45,3.11,1.92,2.65,3.71-.56,2.18,2.32,2.14,2,3.93-.24,1.42.45,2.94-.7,4.69-1.34-1.79-2.17-4.36-5.16-3.35-1.24.42-2-.19-2.15-1.79s-2.28-1.46-2.4-.77c-.7,3.83-3.76,3.08-5.56,2.37-2.06-.81-.59-3.49-.89-5.33a1.65,1.65,0,0,1,0-.49Z"/><path d="M110.88,36.1c1.24-.31,2.77.6,3.24-1.88s3-1,4.58-1.09c1.84-.09,1.2,1.63,1.21,2.62.07,5.3-.09,10.61.08,15.91.09,2.65-1.37,2.48-3.11,2.27l-.51-.35c-.84-1.21-2.32-1.84-3-3.21a2.9,2.9,0,0,1,.41-2.58A4.38,4.38,0,0,0,115.6,44c-.09-.88.26-2.11-1.4-1.81-5.45,1-4.49-2.4-3.81-5.59Z"/><path d="M113.87,56.94c0,1.16,0,2.32.09,3.48.07.9-.45,2.14.85,2.5S117,62.84,117,61.2a1.3,1.3,0,0,1,2.11-1.06c1.84,2,.54,4.65.8,7,.28,2.6-1.72,1.69-3,1.78l.15.14c-1-1.37-2.1-1.35-3.14,0l.14-.14c-3.64,2.25-4.24-1.69-6.13-3l.13.14c-5-4.45-5-4.45-.17-9.36a5.73,5.73,0,0,1,5.42-.32Z"/><path class="cls-2" d="M27,71.93c.46,1-.81,3,1.38,3,1.56-.06,3.88,1.25,4.6-1.13,1-3.29,3.43-1.25,5.16-1.69.69-.17.95.64.93,1.38,0,.93-.94,1.12-1.28,1.6-1.49,2.1-4.94,2.65-4.8,6l-.5.43a2.92,2.92,0,0,1-1.91.14,2.86,2.86,0,0,1-1.05-.72c-.54-.64-1.12-1-1.88-.28l-.51.29c-2,0-3.93.1-5.89.06a3.49,3.49,0,0,1-3.1-5.17,1.49,1.49,0,0,1,2.72-.19c.57,1,.15,2.86,2.14,2.3s.68-2.49,1-3.75a13.91,13.91,0,0,0,.28-2.43l-.13.14,2.94.2Z"/><path class="cls-2" d="M30,42.1c3.38.14,4.32-3,5.94-4.88,1.93-2.21,3.85-1.16,5.6-.79,1,.2.82,1.72-.42,2.6-2.18,1.55-2.21,1.8-.2,2.93A1.71,1.71,0,0,1,42,43.78c-.07,1.54-1.26,1.27-2.15,1.22-2.28-.14-4.42-.25-3.9,3.09l-.66.57c-2.87,1-5.7,1.31-8.32-.71l.14.14a2.15,2.15,0,0,1,0-3.14l-.14.14a34.68,34.68,0,0,0,2.48-2.66Z"/><path class="cls-2" d="M62.94,15.12,67.42,15c.66,0,1.39,0,1.51-.87s.27-1.95-.77-2c-2-.12-3.08-1.26-1.73-2.63,1.16-1.16,4.62-1.08,4.94-.07,1.3,4.1,4.38,2.19,6.73,2.56a26.4,26.4,0,0,0,4,0c1,0,2,0,1.91,1.54S83,15,82,15.07c-1.72.14-4.24-1-4.2,2.37,0,.19-1.1.6-1.12.57-3.64-6-7,2.35-10.93.27-1.8-1-3.16-1-2.64-3.3Z"/><path class="cls-5" d="M77.75,73.54c-1.11-1-.29-3.44-2.58-3.65-1-.7-1.14-1.94-2-2.74-1.75-3.53-5-5-8.5-6.08-1.55-.5-4-.39-2.84-3.31a3.85,3.85,0,0,1,1.85-.83c2,0,3.08-1.29,4-2.86,1.66-.85,2.46.67,3.59,1.28C74,57.77,76.74,60.23,77.8,64,77.78,67.15,77.77,70.35,77.75,73.54Z"/><path class="cls-2" d="M12.14,56.93c-2.28.48-3.27-.2-3.14-2.75A110.41,110.41,0,0,0,9,42.25c-.15-2.63.69-3.3,3.29-3.33s3.18,1.28,2.71,3.3,1.55,4.69-2.33,6.4c-1.91.84-.31,5.53-.68,8.45Z"/><path class="cls-2" d="M96,69.06c1.56-3.36-3.76-2.79-3.38-6.34.32-2.94,4.9-2.5,3.38-5.78l.66-.56c2-.78,3.91-.81,5.6.75,2.58,5-2.07,8-3.41,11.94l.14-.14a2,2,0,0,1-2.46.58Z"/><path class="cls-2" d="M104.89,113.88c-.51,2,1.44,5.74-1.33,5.74-3.47,0-8,3.08-10.72-2-.65-1.23-4.46-1.28-2.6-2.63s2.41-5,5.8-4l-.14-.14c1.42,3.29,3.11,5.69,6.95,2.54.62-.51,1.57-.06,2.18.6Z"/><path d="M96,56.94c-2.88.69-3.13-.88-3.15-3.24s.7-3,2.82-2.69c2.52.41,3.72-.52,3.25-3.18s.81-3.21,3.07-2.74l.48.35a14.15,14.15,0,0,0,2.68,2.38,3.05,3.05,0,0,1,.51,1.2c0,2.69-2.49,3.59-3.8,5.35-1.84,1.25-4.57.53-6,2.71Z"/><path class="cls-6" d="M65.9,79h9.18a1.77,1.77,0,0,1,.32,1.84,4.35,4.35,0,0,1-.86,1c-1.74,1.16-1.18,3.26-2,4.82a2.67,2.67,0,0,1-1,1,7.67,7.67,0,0,1-5.05,0,3.79,3.79,0,0,1-1.19-.84c-.87-1.93-4.52-2.83-2.24-6l-.13.14C63.67,80,65.16,80.06,65.9,79Z"/><path class="cls-7" d="M77.8,64l-7-7.83c-2-4-1.81-4.46,2.24-4.58a10.16,10.16,0,0,1,2.91.17C79.87,55.28,77.05,59.89,77.8,64Z"/><path class="cls-8" d="M61.9,58.06c1.17,2.81,4.12,1.9,6.17,2.86,2.81,1.3,5.16,2.79,6,6-5-.8-9-4.48-14-5.27-2.69-.41-5.21-2.41-8.09-.79l-.08.17q-.61.55-.63-.27l0-3.71C54.73,53.77,57.64,54.06,61.9,58.06Z"/><path class="cls-2" d="M36,48.09l9.16,0,.41.5a2.48,2.48,0,0,1,0,1.89l-.44.49c-2.71-.42-3.43,1-3,3.37.34,2.17-.57,2.77-2.72,2.77-2.36,0-3.89-.28-3.21-3.14l-.14.14c1.36-1,1.34-2.09,0-3.14l.14.14a2.14,2.14,0,0,1,0-3.13Z"/><path class="cls-2" d="M113.88,105c3.79-.47,4.65,2.77,5.93,5.09.44.8,1.11,3.08-.85,3.74s-1.64-1.08-2.23-2.18-2.48-1.52-2.68.48c-.25,2.57-1.86,1.63-3.17,1.71l-.54-.61c-.8-1.92-.81-3.74.68-5.37l-.14.14c1.05-1,2.11-2.08,3.14-3.14Z"/><path class="cls-2" d="M12,90.05h3.13l.5.26a1.24,1.24,0,0,0,1.86,0l.5-.23c2.93-.7,3.07,1,3.14,3.27S20.3,96.14,18.23,96c-2.31-.15-4.64,0-7,0-.9,0-2.08.33-2.2-1.2-.09-1.2.3-1.78,1.63-1.82,2.27-.07,1-2,1.43-3Z"/><path class="cls-3" d="M83.9,56.94c-.19,2.12.26,3.46,2.92,3.14,1-.12,2.79-1,3.13,1.16.28,1.75-.94,1.58-2.11,1.86-1.58.38-.54,2-1,3l.14-.15-3.14,0,.14.14c-.42-1,.78-2.51-1.35-3.17s-3.86-3-3.41-5,3.12-.56,4.78-.84Z"/><path class="cls-9" d="M68.9,48c.47,2.08-.86,2.12-2.27,2-3.13-.36-6.39-.6-6.53-5l-.14.14c5.32.13,2.13-4.07,3.12-6.14l-.15.12a2.16,2.16,0,0,1,3.14,0L65.92,39a51,51,0,0,1,0,6.3c-.32,2.63,1.08,3,3.09,2.85Z"/><path class="cls-10" d="M75.92,51.71c-2.3.79-7.27-1.56-5.15,4.41l-3-2c-1.61.62-3.27.22-4.91.26-3.37-.3-7,1.07-10-1.4.21-.74.1-1.9,1.16-1.86C61.33,51.37,68.66,50.27,75.92,51.71Z"/><path d="M65.93,113.88c.69,3.43-3.3,3.61-4.29,6-.22.54-1.64-.23-1.68-1.56-.07-2.28-2-1-3-1.43l-.58-.69c-.77-5.14-.34-5.74,3.71-5.16l-.14-.14c1.42,2.29,4.56,1.19,6.14,3.14Z"/><path d="M9.05,77.67a12.16,12.16,0,0,1,0-2.49c.22-1.1-.93-2.93,1.21-3.13C13,71.8,11.8,74,12,75.2c.13.64-.15,1.81.1,1.91,4.21,1.7,3.51,3.12,0,5-.49.27-.42,2.12-2,1.83-1.81-.34-.94-1.81-1.06-2.8A28.65,28.65,0,0,1,9.05,77.67Z"/><path class="cls-2" d="M84.05,81.06c-.36-1,.61-2.82-.9-3-3.94-.34-2-3.21-2-4.8,0-2.45,2.25-.94,3.47-1.27a8.41,8.41,0,0,1,2.45,0l.61.7a9.18,9.18,0,0,1,.43,6.17c-.54,2.25-1.75,3.49-4.17,2Z"/><path class="cls-11" d="M52.87,53H64.08c-.88,1.65-.12,3.29,0,4.94l-2.21.13c-3.47-1-6.8-3.47-10.62-1.05C51.5,55.54,49.71,53.29,52.87,53Z"/><path class="cls-12" d="M45.11,48.06C44.72,42.28,49,46,51,45.14L50.9,45c-.56,5.31,4.62,1.6,6.48,4.27-3.4.46-6.14,2.14-9.4,1.65-.17-.11-.34-.22-.52-.32-.85-.88-1.59-1.84-2.51-2.65Z"/><path class="cls-3" d="M35.4,15c-2.86.56-2.2-1.59-2.41-3.32-.34-2.8,1.33-2.55,3.25-2.73,3.2-.31,2.68,1.67,2.83,3.64C39.31,15.7,37.24,15,35.4,15Z"/><path d="M86.88,66.07a10.18,10.18,0,0,1,2.35,0c.9,4.25,4.3,2.6,6.81,3l-.14-.13c1.47,2.45.18,3.68-2.06,4.22-2.45.6-4.86.53-6.93-1.23l.13.15q0-3.07,0-6.15Z"/><path d="M102,45.09V42l.42-.75c1.36-1.37,2.53-3.58,4.86-2.54s1.91,3.61,1.93,5.72a5.2,5.2,0,0,1-1.19,3.71,2.35,2.35,0,0,1-3.17-.15l.14.14C104,47,103,46,101.89,45Z"/><path class="cls-2" d="M81.05,50.94c-3.46.48-3.84-3.22-5.94-4.62C74.68,46,74,43,75.88,42.15c2.19-.93,1.74,1.45,2.5,2.41.43.55,1.75.38,2.67.53L80.91,45a4.4,4.4,0,0,1,0,6.13Z"/><path d="M24,87.05H30.1c.15.18.3.35.44.53A2,2,0,0,1,30,90l.14-.14a34.82,34.82,0,0,0-2.48,2.67l-.51.33c-5.8.4-2.07-4-3-6Z"/><path d="M63.06,80.91c.15,1.24-1,3.06,1.61,3.12,2.2,0,.93,2,1.42,2.92-2,1.75-4.09,1.55-6.19.16a4.67,4.67,0,0,1,.17-6.2l-.15.14Z"/><path d="M102,36.1c-.86-4.09,2.16-3.14,4.17-3s5.48-1.6,4.67,3L111,36c-2.62,2-5.45,1.69-8.33.72Z"/><path d="M21.13,42c-1.3-.09-3.3.85-3.05-1.73.23-2.38-1-5,.77-7,.61-.67,2.24-.26,2.2,1.51C21,37.15,21,39.62,21,42.09Z"/><path class="cls-2" d="M45.08,81.06l0-6.13-.14.14c1.16,0,2.33,0,3.48-.09,1.41-.14,1.49.92,1.87,1.8.92,2.08-.93.94-1.47,1.21-1.46.74-.51,2.08-.89,3.07l.14-.15a2.15,2.15,0,0,1-3.14,0Z"/><path d="M42,27c-.85,1.94,2,5.78-1.67,5.75-2.52,0-.71-3.75-1.19-5.75l-.14.15a2.15,2.15,0,0,1,3.14,0Z"/><path d="M102,42c-2.78.64-3.09-.82-3.16-3.18-.08-2.59,1-3.12,3.16-2.68l-.15-.14a4.4,4.4,0,0,1,0,6.13Z"/><path d="M92.9,42a6.81,6.81,0,0,1,0,2c-.38,1.37,1.24,3.48-1.28,4-1.76.4-1.66-1-1.7-2.16-.06-2.17-.43-4.53,3.08-3.7Z"/><path d="M48,50.92c-.9,1.93,2,5.8-1.7,5.77-2.53,0-.72-3.75-1.2-5.75l-.13.14a2.15,2.15,0,0,1,3.13,0Z"/><path d="M116.8,116.84c1.33.39,3.19-.65,3.11,1.6-.09,2.54-2.14,1.3-3.33,1.45s-2.84.52-2.6-1.68S116.13,117.59,116.8,116.84Z"/><path class="cls-13" d="M51.24,60.72a2.42,2.42,0,0,0,.64.27V75.93C50.22,70.92,51.51,65.79,51.24,60.72Z"/><path class="cls-12" d="M83.88,66c.75,2.89-.82,3.34-3.16,3.06-.82-.09-1.62,0-1.68-1.2s.2-1.9,1.55-1.82c1.14.06,2.29.07,3.43.1Z"/><path d="M53.93,24.11h3.16L56.94,24a2.16,2.16,0,0,1,0,3.14l.14-.14a2.32,2.32,0,0,1-2.64.66,2.24,2.24,0,0,1-1-1A2.33,2.33,0,0,1,54.08,24Z"/><path d="M45.1,74.93c-1.26-.16-3.22.95-3.06-1.73A1.09,1.09,0,0,1,43.23,72c2.67-.16,1.57,1.8,1.73,3.06Z"/><path d="M54.09,30H50.94l.14.13q-1.84-4.84,3-3L53.94,27a2.15,2.15,0,0,1,0,3.13Z"/><path d="M27.05,34.65c-.09-.92.16-1.59,1.24-1.6.82,0,1.65,0,1.73,1.12s-.11,1.9-1.49,1.87C27.58,36,27,35.68,27.05,34.65Z"/><path d="M30.1,83.91c-2.56.56-3.54-.46-3-3l-.13.14a2.15,2.15,0,0,1,3.13,0L30,80.91a2,2,0,0,1,.59,2.47Z"/><path d="M33,81.05c2.54-.54,3.57.43,3,3l-.54.45a2.79,2.79,0,0,1-2.07,0,2.19,2.19,0,0,1-.94-1,2.31,2.31,0,0,1,.7-2.57Z"/><path d="M27.11,42.1c.24-1.08-1-2.83,1.19-3,2.64-.24,1.5,1.8,1.67,3L30.1,42A2.19,2.19,0,0,1,27,42Z"/><path d="M48,40.53c.06,1-.36,1.43-1.37,1.5-1.33.08-1.67-.59-1.6-1.76S45.74,39,46.64,39,48.06,39.57,48,40.53Z"/><path d="M93,42.1c.14-1.26-1-3.21,1.72-3.06A1.1,1.1,0,0,1,96,40.23c.16,2.68-1.79,1.58-3,1.73Z"/><path d="M24.12,86.91c-1.26-.15-3.22,1-3.06-1.72A1.11,1.11,0,0,1,22.25,84c2.67-.15,1.58,1.8,1.73,3.06Z"/><path d="M30.1,87.05V83.91l-.14.14a2.16,2.16,0,0,1,3.14,0L33,83.91a2.16,2.16,0,0,1,0,3.14l.14-.14a2.16,2.16,0,0,1-3.14,0Z"/><path d="M36,84.05c2.56-.56,3.55.46,3,3l.13-.15a2.17,2.17,0,0,1-3.13,0l.14.14a2.16,2.16,0,0,1,0-3.14Z"/><path d="M51,45.14c.23-1.23-.95-3.25,1.75-3.1A1.11,1.11,0,0,1,54,43.23c.16,2.7-1.87,1.53-3.1,1.77Z"/><path d="M12.13,89.91c-1.26-.15-3.21,1-3.06-1.72A1.11,1.11,0,0,1,10.26,87c2.68-.16,1.58,1.8,1.73,3.06Z"/><path d="M15.12,90.05c.17-1.23-1-3.27,1.67-3,2.18.2.94,2,1.19,3l.14-.15a2.2,2.2,0,0,1-3.14,0Z"/><path d="M60.1,45c-1.24-.19-3.23,1-3.08-1.74A1.1,1.1,0,0,1,58.21,42c2.69-.16,1.56,1.83,1.75,3.07Z"/><path d="M69,48.12c.2-1.25-1-3.24,1.74-3.09a1.12,1.12,0,0,1,1.2,1.2c.16,2.69-1.84,1.55-3.08,1.74Z"/><path d="M30,92.89c-.17,1.24,1,3.27-1.67,3-2.19-.2-.95-2-1.19-3L27,93a2.2,2.2,0,0,1,3.13,0Z"/><path d="M34.58,99c-1.21,0-1.53-.54-1.56-1.49,0-1.38.8-1.54,1.88-1.47S36,96.9,36,97.72C36,98.78,35.35,99.08,34.58,99Z"/><path d="M116.88,53.93q.83,3.84-3,3l.15.14a2.13,2.13,0,1,1,3-3Z"/><path d="M30.3,59.71c-2.9.94-3.82-.13-3-3,0,0-.14.16-.13.15,2.23-.24,3.29.69,3,3Z"/><path d="M33.12,62.94H30l.14.14c.06-1.12.12-2.23.19-3.35l-.14.15c2.46-.26,3.29.91,2.82,3.21Z"/><path d="M30,62.93c-.15,1.26,1,3.21-1.73,3.06a1.12,1.12,0,0,1-1.19-1.2c-.16-2.67,1.8-1.58,3.06-1.72Z"/><path d="M43.4,9.07C44.32,9,45,9.23,45,10.31c0,.82,0,1.64-1.12,1.72S42,11.93,42,10.55C42,9.6,42.37,9,43.4,9.07Z"/><path d="M48,10.68c-.09-.93.16-1.59,1.24-1.61.82,0,1.65,0,1.72,1.12s-.1,1.9-1.48,1.87C48.56,12,48,11.7,48,10.68Z"/><path d="M60.28,11.76c-1.28.06-3.05,1.32-3.25-1.28-.08-1,.38-1.43,1.45-1.44,2.32,0,1.19,1.87,1.66,2.87Z"/><path d="M33.05,109.58c-.09-.93.15-1.59,1.24-1.61.82,0,1.64,0,1.72,1.12s-.1,1.9-1.48,1.87C33.57,110.94,33,110.6,33.05,109.58Z"/><path d="M63.09,15H59.93l.14.14c.07-1.12.13-2.23.2-3.35,0,0-.14.15-.13.15,2.45-.26,3.28.9,2.8,3.2Z"/><path d="M27.1,72.07c.15-1.26-1-3.21,1.73-3.06A1.1,1.1,0,0,1,30,70.2c.16,2.68-1.8,1.58-3.06,1.73Z"/><path d="M59.93,15c-.14,1.26,1,3.21-1.72,3.05A1.1,1.1,0,0,1,57,16.84c-.16-2.67,1.79-1.58,3-1.72Z"/><path d="M54.08,116.87c-2.57.57-3.54-.45-3-3l-.14.15c2.45-1.38,3.69-.73,3.59,2.15Z"/><path d="M110.88,113.87c-.16,1.24,1,3.27-1.67,3-2.18-.19-.94-2-1.19-3l-.13.15a2.2,2.2,0,0,1,3.13,0Z"/><path d="M56.94,116.87c-.17,1.23,1,3.27-1.67,3-2.19-.2-1-2-1.19-3l-.14.15a2.2,2.2,0,0,1,3.14,0Z"/><path d="M42.1,101.9c-1.26-.15-3.22.95-3.06-1.73A1.1,1.1,0,0,1,40.23,99c2.67-.16,1.58,1.8,1.72,3.06Z"/><path class="cls-3" d="M74.9,81,75.08,79c1.84-.58,3.58-1,2.83,2l.15-.14A2.16,2.16,0,0,1,74.9,81Z"/><path class="cls-14" d="M65.9,79c.53,2.9-1.79,1.63-3,2C62.58,78.41,64.48,79.06,65.9,79Z"/><path class="cls-15" d="M59.94,87.06,66.09,87l-.16,0a2.18,2.18,0,0,1,.35,3C65.08,92,67,91.64,68,92.06a4.18,4.18,0,0,1,1.16.57,16.35,16.35,0,0,0,2.43,2.76l.35.51c-.19,2.09.25,3.63,2.86,3.06,5.79-1.28,7,1.65,6.22,6.61a12.6,12.6,0,0,0,.06,2.45,5.75,5.75,0,0,1-.57.42c.11-.15.25-.34.43-.56,3.92-.57,3.63,2.5,2.88,4.31a9.3,9.3,0,0,1-4.52,4.57c-1.4.63-4.32,1.34-4.57-2.25-.08-1.22-2-1.18-2.85-1.7-5-3,.5-5.35.06-7.91a5.34,5.34,0,0,1,3.35-1.21,2.92,2.92,0,0,0-3.21,1.36l-6.12-.17.14.14c.07-.94-.62-2.23.39-2.72,1.23-.61,3.31-.39,2.38-2.59-.64-1.49-2.6-1-3.53-.65-4,1.68-5.17-3.32-8.38-3.17l-.48-.33a18.81,18.81,0,0,0-2.05-2c-.11-.16-.22-.32-.32-.48V86.91l-.14.14h3.12l.5.25a1.26,1.26,0,0,0,1.87,0Z"/><path class="cls-16" d="M86.91,71.92c2.27,0,4.55-.08,6.81.1,2.67.22,2.31-1.46,2.18-3.09H99v9.13c-.65,0-1.31,0-2-.1-1.83-.13-.6-4.38-3.23-2.8-2,1.2-.43,3.92-.94,5.89-.09.17-.17.33-.25.5a1.25,1.25,0,0,0,0,1.87c.08.16.16.33.23.5.75,2.2-1.61,5.53,2.67,6.59,1,.24.8,2.37-1.23,2.45-1.47.06-3,.06-4.43.08,0-1.32.08-2.64.06-4,0-.94.21-2.06-1.31-2.09-.91,0-1.68.14-1.65,1.25s-.45,1.83-1.73,1.72c-1.92-.15-1.21-1.63-1.26-2.61-.12-2.14-.08-4.29-.1-6.44,1.63.14,3.31.5,3.1-2.17C86.83,76.48,86.93,74.19,86.91,71.92Z"/><path class="cls-16" d="M57.08,117H53.94q.83-3.83-3-3c0-1.47.13-3,.05-4.42-.11-2,1.1-4.73-2.58-5-.23,0-.31-1.73-.46-2.66,1.09-.23,3,1,3-1.28-.06-1.54,1.3-3.75-1.23-4.61-3.12-1-1.6-3.57-1.4-5.27a1.34,1.34,0,0,1,2.6.4c.23,2.58,2,1.62,3.2,1.91l-.15-.14q1.55,1.59,3.14,3.14l-.14-.15c-.89,3.29,2.46,7.53-2.76,10.07-1.27.62.9,2.18,2.5,2,2.38-.29,3.84.32,3.39,3.08C54.28,110.62,58,115,57.08,117Z"/><path class="cls-15" d="M77.92,87.05c2.9-.69,3.08,1,3.14,3.25s-.75,2.87-2.85,2.71c-1.48-.11-3.27-.68-3.37,2.13,0,1.5-1.89.6-2.92.76l.14.14C71,95,70,93.94,68.92,92.9l.14.14c-2.25-3.63,1.69-4.24,3-6.13l-.13.14a2.26,2.26,0,0,1,2.41-.76,3.12,3.12,0,0,1,1.12.68c.55.62,1.11,1.13,1.94.37Z"/><path class="cls-16" d="M89.9,98.9c-.23,1.08,1,2.9-1.19,3-2.57.13-1.53,1.87-1.66,3.13-1.58-.07-3.45.3-3.09-2.38a11.66,11.66,0,0,0,0-3.44C83,94.21,84.89,92,90,92.9L89.9,96c-.09.16-.18.33-.26.5a1.25,1.25,0,0,0,0,1.86C89.75,98.57,89.82,98.73,89.9,98.9Z"/><path class="cls-1" d="M74.9,81l3.16,0c0,2-.09,4.1-.14,6.14l.13-.14a2.15,2.15,0,0,1-3.13,0l.14.14a4.4,4.4,0,0,1,0-6.13Z"/><path class="cls-16" d="M66.07,114c-2.06-1-6.36,2.34-6.14-3.14C62,111.91,66.29,108.54,66.07,114Z"/><path class="cls-1" d="M65.94,104.88c-.17,1.25,1,3.21-1.73,3.06A1.1,1.1,0,0,1,63,106.75c-.16-2.68,1.81-1.57,3.06-1.73Z"/><path class="cls-1" d="M98.89,77.92c2.3.61,5.64-1.53,6.62,2.73.15.64,2.29.85,2.37-.92s1-1.63,2.24-1.77c6.83-.76,6.82-.79,6.83,6.14,0,3,0,6,.07,8.94-3.27,0-6.54-.19-9.79,0-2.67.13-2.35-1.46-2.2-3.12.17-.16.34-.32.5-.49,1.15-.8,3-.32,3.89-2.26-1.3-.52-2.23.87-3.27.59a3.4,3.4,0,0,1-1.25-.4,22.82,22.82,0,0,0-2.52-2.77c-.12-.17-.24-.34-.35-.52-.35-1.17.77-3.07-1.81-3.13C98.05,80.88,99.35,78.93,98.89,77.92Z"/><path class="cls-15" d="M100.53,96.15c4.76-1.38,4.17,1.6,4.55,4.57.56,4.42-1.82,4-4.88,4.37-4.41.51-4.14-1.79-4.34-4.89C95.6,96.17,97.09,95.06,100.53,96.15Z"/><path class="cls-15" d="M105,114c-1,.15-2.81-.75-2.94.75-.36,3.94-3.22,2-4.8,2-2.46,0-.93-2.25-1.29-3.46a10,10,0,0,1-.1-2.46c.83,0,1.85.32,2.44,0,1.12-.71,1.11-4.42,2.62-2.59C102.34,109.9,105.75,110.76,105,114Z"/><path class="cls-17" d="M111.22,104.67c-1.19.13-2.93,1.17-3.15-.85a16.7,16.7,0,0,1,.36-7.3c.47-1.32,3-.7,4.56-.42a1.37,1.37,0,0,1,.42,2.55c-4.44.83-1.72,4.08-2.33,6.17Z"/><path class="cls-15" d="M105,89.9c-2.44-.52-6.63,2.23-6.16-3.66.2-2.63,1.5-2.34,3.16-2.19l-.14-.14c1,1.06,2.09,2.1,3.14,3.14l-.14-.14a2.15,2.15,0,0,1,0,3.13Z"/><path class="cls-1" d="M111,114h-3.13c1-2.06-2.34-6.35,3.13-6.13Z"/><path class="cls-1" d="M92.89,81.05c1.23.17,3.27-1,3,1.67-.2,2.19-2,.94-3,1.2l.15.13a2.22,2.22,0,0,1,0-3.14Z"/><path class="cls-1" d="M89.9,96c1.23.17,3.26-1,3,1.67-.2,2.18-2,.94-3,1.19L90,99a2.22,2.22,0,0,1,0-3.14Z"/><path class="cls-1" d="M114,104.89q.53,3.66-3.14,3.14l.33-3.35-.13.14Z"/><path class="cls-1" d="M36.1,48v3.13a53.49,53.49,0,0,0-6.33,0c-2.62.3-3-1.09-2.8-3.11Z"/><path class="cls-16" d="M21.12,65.91c-3.46.76-3.6-3.3-6-4.26-.58-.23.3-1.9,1.53-1.59,1.49.37,3.9-1.47,4.34,1.53a28.89,28.89,0,0,1,0,4.46Z"/><path class="cls-1" d="M27,42H30.1q.52,3.66-3.13,3.14Z"/><path class="cls-1" d="M27.11,45v3.14c-1.15-.39-3.29.82-3-1.81C24.27,44.1,26.1,45.41,27.11,45Z"/><path class="cls-1" d="M36,50.94c1.14.39,3.28-.82,3,1.81-.21,2.18-2,.87-3,1.33Z"/><path class="cls-16" d="M66.28,36.29c-.22-1.09-.91-2.63.41-3a11.57,11.57,0,0,1,4.79.06c.82.11.49,1.09.45,1.69-.05.78-.66,1-1.37,1-1.48,0-3,.09-4.43.13Z"/><path class="cls-1" d="M56.94,27.11V24c2.4-.29,3.58.58,3,3.14l.14-.14Z"/><path class="cls-1" d="M53.94,30.1V27h3.14C57.42,29.41,56.38,30.45,53.94,30.1Z"/><path class="cls-18" d="M59.93,27.11c1.26.14,3.21-.95,3.06,1.72A1.11,1.11,0,0,1,61.8,30c-2.67.16-1.59-1.79-1.73-3.05Z"/><path class="cls-1" d="M67.43,27.06c1.2,0,1.55.52,1.57,1.47,0,1.37-.77,1.56-1.86,1.48S66,29.12,66,28.3C66.05,27.24,66.65,26.92,67.43,27.06Z"/><path class="cls-1" d="M66.07,39.09H62.93c-.31-2.62.7-3.68,3.34-2.81l-.14-.14Z"/><path class="cls-1" d="M60.07,80.91c0,2-.09,4.1-.13,6.15l.13-.15a2.15,2.15,0,0,1-3.13,0l.13.15C57.9,84.92,54.51,80.73,60.07,80.91Z"/><path class="cls-16" d="M41.94,87.06c1.1.22,2.87-1,3,1.22a20.32,20.32,0,0,1-.35,4.32c0,.17-.83.31-1.28.34-1.1,0-1.32-.69-1.3-1.59,0-1.48,0-3,.06-4.43Z"/><path class="cls-1" d="M45,80.91h3.14c-.39,1.15.82,3.29-1.81,3C44.1,83.75,45.41,81.92,45,80.91Z"/><path class="cls-1" d="M36.1,83.91v3.14H33V83.91Z"/><path class="cls-1" d="M54.09,86.91c-1.25-.16-3.21,1-3.06-1.72A1.1,1.1,0,0,1,52.22,84c2.67-.16,1.57,1.8,1.73,3Z"/><path class="cls-1" d="M30,86.91H33.1Q33.63,90.57,30,90Z"/><path class="cls-1" d="M30.1,93H27c-.35-2.44.69-3.48,3.13-3.14Z"/><path class="cls-15" d="M36,86.91h3.13c-.38,1.14.83,3.28-1.81,3C35.11,89.74,36.42,87.92,36,86.91Z"/><path class="cls-13" d="M52,60.82c-.3-2.54.85-2.66,2.93-2,6.64,2.1,13.58,3.47,19.17,8.06.79.85,1.46,1.74,1.12,3-4.82-3.84-9.71-2.86-14.47,0-2,1.23-3.94,1.67-5.92.26S52.62,67,53.55,64.91,53.5,61.78,52,60.82Z"/><path class="cls-16" d="M27,19.47C27,27,27,27,17.42,27c-5.37,0-5.37,0-5.37-9.62,0-5.37,0-4.83,9.61-5.54C29.16,11.32,26.64,16.15,27,19.47Z"/><path class="cls-1" d="M27,109.43C27,117,27,117,17.68,117c-5.63,0-5.63,0-5.63-9.36,0-5.64,0-5.12,9.85-5.79C29.73,101.27,26.25,106.6,27,109.43Z"/><path class="cls-16" d="M117,19.75c0,7.29,0,7.29-8.7,7.29C102,27,102,27,102,17.34c0-5.29,0-5.29,9.69-5.29C117,12.06,117,12.06,117,19.75Z"/><path class="cls-15" d="M98.89,69.07c.87-2.14-1.87-5.61,2.61-6.63.57-.13.38-3.58.54-5.49l.52-.49a5.81,5.81,0,0,1,4.81,0l.51.49a1.3,1.3,0,0,0,.05.49c1.67,3.26-3.75,1.67-3,4.32.53,1.78,4.21,1.34,3,4.32-2.57.14-5.86-1.44-6.78,2.85C101.2,69.12,99.71,69,98.89,69.07Z"/><path class="cls-15" d="M107.89,65.93c1.17.35,3-.77,3.13,1.81.07,2.17,1.92,1,3,1.19-.81,4.26-7.61,7.89-11.25,6a1.48,1.48,0,0,1-.8-1.6A1.23,1.23,0,0,1,103.58,72C109.38,73.05,107.86,69,107.89,65.93Z"/><path class="cls-1" d="M113.88,69.07c.39-1.15-.83-3.29,1.81-3,2.18.2.87,2,1.33,3Z"/><path class="cls-16" d="M54.08,27.11q-3.82-.84-3,3c-5.55.18-2.2-4-3-6.12l-.14.14L54.08,24Z"/><path class="cls-1" d="M48.1,24c-1.26-.16-3.22.95-3.07-1.73a1.1,1.1,0,0,1,1.19-1.19c2.68-.16,1.58,1.8,1.74,3.06Z"/><path class="cls-1" d="M42.09,27.11H39c.39-1.15-.82-3.29,1.82-3C42.94,24.27,41.63,26.1,42.09,27.11Z"/><path class="cls-1" d="M80.91,51.08V45c2.67-.42,3.07.93,3.17,3.31C84.19,50.93,83,51.26,80.91,51.08Z"/><path class="cls-16" d="M101.89,42.09V36H111c0,1.16-.1,2.32,0,3.48,0,.89-.45,2.14.84,2.5s2.18-.06,2.19-1.71a1.3,1.3,0,0,1,2.11-1.07c1.85,2,.54,4.65.8,7,.29,2.59-1.7,1.7-3,1.77l-.51-.26c-.72-.62-1.3-.31-1.84.3a3.43,3.43,0,0,1-1.06.68,3,3,0,0,1-1.94-.13l-.5-.44a29.37,29.37,0,0,0-.09-3c-.28-2,1.11-4.69-.84-5.9-2.65-1.64-1.4,2.65-3.23,2.77C103.21,42,102.55,42.06,101.89,42.09Z"/><path class="cls-1" d="M113.88,47.94v3.14l-.54.45a2.84,2.84,0,0,1-2.07,0,2.21,2.21,0,0,1-.93-1A2.3,2.3,0,0,1,111,48l-.14.14a2.15,2.15,0,0,1,3.14,0Z"/><path class="cls-1" d="M117,54.08l-3.14-.14-.44-.53a2,2,0,0,1,.58-2.47l-.15.14C116.43,50.5,117.31,51.67,117,54.08Z"/><path class="cls-16" d="M113.88,53.94l.14,3.14-6.14-.14.14.14c-1.31-2-3.69-1.63-5.5-2.52l-.48-.49c.22-1.08-1-2.89,1.18-3,2.58-.12,1.54-1.87,1.67-3.12l3.14.14-.15-.14C108.91,49,110,50,111,51.08l-.14-.14c1,1.05,2.08,2.11,3.14,3.14Z"/><path class="cls-1" d="M30.1,81.05H27c.38-1.14-.83-3.28,1.81-3C31,78.22,29.64,80.05,30.1,81.05Z"/><path class="cls-1" d="M33.1,84.05H30V80.91H33.1Z"/><path class="cls-19" d="M64.11,57.93C63,56.29,60,54.67,64.08,53a3.57,3.57,0,0,1,3.73,1.14C68.57,57.33,67.1,58.36,64.11,57.93Z"/><path class="cls-1" d="M95.9,57.08c-.18-5.56,4-2.19,6.14-3l-.15-.13a2.15,2.15,0,0,1,0,3.14L102,57Z"/><path class="cls-1" d="M101.89,45q3.66-.53,3.14,3.14C102.59,48.43,101.54,47.39,101.89,45Z"/><path class="cls-2" d="M72.06,86.91c-.35,1.18.76,3-1.81,3.13-2.17.07-1,1.92-1.19,3A16.82,16.82,0,0,1,66.6,93c-1.19-.2-2.88.79-3.49-.79-.88-2.25,1.31-1.88,2.44-2.53,1-.55.3-1.79.38-2.72Z"/><path d="M75.06,80.92v6.13H71.93C72.94,85,69.65,80.73,75.06,80.92Z"/><path class="cls-1" d="M48.08,51.08H45V48C47.38,47.61,48.43,48.65,48.08,51.08Z"/><path class="cls-17" d="M15,89.9h3.14c-.39,1.15.82,3.29-1.81,3C14.13,92.74,15.44,90.91,15,89.9Z"/><path d="M72.06,105.05c.24-1.09-1-2.88,1.23-3a20.33,20.33,0,0,1,4.32.36c.18,0,.32.83.34,1.28,0,1.1-.7,1.31-1.59,1.3l-4.44-.06Z"/><path d="M56.94,86.91h3.13c-.39,1.14.83,3.28-1.81,3C56.09,89.74,57.4,87.92,56.94,86.91Z"/><path d="M57.08,96q-3.66.52-3.14-3.14Q57.6,92.38,57.08,96Z"/><path d="M68.92,92.9q3.66-.53,3.14,3.14C69.62,96.39,68.58,95.34,68.92,92.9Z"/><path d="M80.92,107.88c-.16,1.25,1,3.21-1.73,3.06A1.11,1.11,0,0,1,78,109.75c-.16-2.68,1.8-1.57,3.06-1.73Z"/><path d="M93,80.91v3.14c-1.14-.39-3.28.83-3-1.81C90.21,80.06,92,81.37,93,80.91Z"/><path d="M74.92,86.91h3.13c-.38,1.14.83,3.28-1.81,3C74.07,89.74,75.38,87.92,74.92,86.91Z"/><path d="M90,95.9V99c-1.14-.39-3.28.82-3-1.81C87.21,95.05,89,96.36,90,95.9Z"/><path d="M104.89,90V86.91c.93-.08,2.2.59,2.72-.39.63-1.17.36-3.37,2.55-2.4,1.66.74.62,2.64.76,4,.26,2.59-1.77,1.7-3.06,1.83C106.88,90.06,105.88,90,104.89,90Z"/><path d="M105,87.05q-3.66.53-3.14-3.14Q105.55,83.39,105,87.05Z"/><path d="M100.47,99c1-.06,1.43.36,1.49,1.37.09,1.33-.59,1.66-1.75,1.6S99,101.24,99,100.34,99.51,98.92,100.47,99Z"/><path d="M19.06,24c-4.71,1.36-3.66-2-4.1-4.77-.74-4.63,2.12-3.82,4.95-4.24,4.64-.68,3.88,2.12,4.22,5C24.67,24.33,22.28,24.44,19.06,24Z"/><path d="M19.78,105.06c4.22-1.17,4.13,1.32,4.4,4.56.35,4.16-1.49,4.24-4.8,4.48-4.16.3-4.26-1.5-4.48-4.81C14.64,105.19,16.27,104.36,19.78,105.06Z"/><path d="M113.78,19.3c1,4.11-.67,4.85-4.32,4.89s-4.66-.92-4.66-4.65.91-4.74,4.66-4.63C113,15,115.11,15.38,113.78,19.3Z"/><path d="M101.89,57.08V53.94c2.06,1,6.36-2.34,6.13,3.14Z"/><path d="M114,48.09h-3.14c.39-1.15-.82-3.29,1.81-3C114.87,45.25,113.56,47.08,114,48.09Z"/><path d="M111,51.08c-2.44.35-3.48-.69-3.14-3.13H111Z"/><path d="M114,54.08q-3.66.53-3.14-3.14H114Z"/></g></g></svg>